/* XPM */
static char *map_1_41623946239[] = {
/* columns rows colors chars-per-pixel */
"32 32 4 1 ",
"  c None",
". c black",
"X c gray56",
"o c #DCD7D5",
/* pixels */
"                       .oooooooX",
"                       .oooooooX",
"                       .oooooooX",
"                       .oooooooX",
"                       .oooooooX",
"                       .oooooooX",
"                       .oooooooX",
"                       .oooooooX",
"                       .oooooooX",
"                       .oooooooX",
"                       .oooooooX",
"                       .oooooooX",
"                       .oooooooX",
"                       .oooooooX",
"                       .oooooooX",
"                       .oooooooX",
"                       .oooooooX",
"                       .oooooooX",
"                       .oooooooX",
"                       .oooooooX",
"                       .oooooooX",
"                       .oooooooX",
"                       .oooooooX",
"                       .oooooooX",
"                       .oooooooX",
"                       .oooooooX",
"                       .oooooooX",
"                       .oooooooX",
"                       .oooooooX",
"                       .oooooooX",
"                       .oooooooX",
"                       .oooooooX"
};
