/* XPM */
static char *map_1_61623946239[] = {
/* columns rows colors chars-per-pixel */
"32 32 4 1 ",
"  c None",
". c black",
"X c gray56",
"o c #DCD7D5",
/* pixels */
"Xooooooo.                       ",
"Xooooooo.                       ",
"Xooooooo.                       ",
"Xooooooo.                       ",
"Xooooooo.                       ",
"Xooooooo.                       ",
"Xooooooo.                       ",
"Xooooooo.                       ",
"Xooooooo.                       ",
"Xooooooo.                       ",
"Xooooooo.                       ",
"Xooooooo.                       ",
"Xooooooo.                       ",
"Xooooooo.                       ",
"Xooooooo.                       ",
"Xooooooo.                       ",
"Xooooooo.                       ",
"Xooooooo.                       ",
"Xooooooo.                       ",
"Xooooooo.                       ",
"Xooooooo.                       ",
"Xooooooo.                       ",
"Xooooooo.                       ",
"Xooooooo.                       ",
"Xooooooo.                       ",
"Xooooooo.                       ",
"Xooooooo.                       ",
"Xooooooo.                       ",
"Xooooooo.                       ",
"Xooooooo.                       ",
"Xooooooo.                       ",
"Xooooooo.                       "
};
