/* XPM */
static char *_930_a9f0cea1b1a33875d6c5dba6406180c64948bcb3a39a0642d5936e251726ecf6[] = {
/* columns rows colors chars-per-pixel */
"32 32 14 1 ",
"  c black",
". c #4D403A",
"X c #373748",
"o c #2E3552",
"O c #797979",
"+ c #8B695E",
"@ c #FFAE6C",
"# c #FFA678",
"$ c #8D8D8D",
"% c gray63",
"& c #FF8982",
"* c #FFDEBF",
"= c white",
"- c None",
/* pixels */
"--------------------------------",
"--------------------------------",
"--------------------------------",
"----------            ----------",
"--------- O%%%%%%%%%%O ---------",
"-------- OO%%%@%%@%%%OO --------",
"------- OOO%%%@  @%%%OOO -------",
"------- OOO%%%====%%%OOO -------",
"------- OOO%%%    %%%OOO -------",
"------- OOO%  %%%%  %OOO -------",
"------- O   %%%%%%%%   O -------",
"-------  OOO        OOO  -------",
"------- O   ########   O -------",
"-------   * # #### # *   -------",
"------- . ** ****** ** . -------",
"------- . * * **** * * . -------",
"------- . ************ . -------",
"------- . ****&==&**** . -------",
"------- . ****&&&&**** . -------",
"------ +.. ********** ..+ ------",
"------ ++++          ++++ ------",
"------ +++ ooo ** ooo +++ ------",
"-------   ooooo  o=ooo   -------",
"------- ** ooooooo=o= ** -------",
"------- ** oooooooooo ** -------",
"--------  oooooooooooo  --------",
"---------              ---------",
"--------- OO XXXXXX OO ---------",
"--------- OO        OO ---------",
"--------- OO $$$$$$ OO ---------",
"---------    $$$$$$    ---------",
"--------------------------------"
};
