/* XPM */
static char *_102_aff5e7bcc642284808cd7eb798f20ba2464f3282b2f868ef0addb76b3fc41e41[] = {
/* columns rows colors chars-per-pixel */
"32 32 12 1 ",
"  c black",
". c #4D403A",
"X c #373748",
"o c #2E3552",
"O c #797979",
"+ c #8B695E",
"@ c #FFAE6C",
"# c #FFA678",
"$ c gray63",
"% c #FFDEBF",
"& c white",
"* c None",
/* pixels */
"********************************",
"********************************",
"********************************",
"**********            **********",
"********* O$$$$$$$$$$O *********",
"******** OO$$$@$$@$$$OO ********",
"******* OOO$$$@  @$$$OOO *******",
"******* OOO$$$&&&&$$$OOO *******",
"******* OOO$$$    $$$OOO *******",
"******* OOO$  $$$$  $OOO *******",
"******* O   $$$$$$$$   O *******",
"*******  OOO        OOO  *******",
"******* O   ########   O *******",
"*******   %   ####   %   *******",
"******* . %% %%%%%% %% . *******",
"******* . %% %%%%%% %% . *******",
"******* . %%%%%%%%%%%% . *******",
"******* . %%%%%  %%%%% . *******",
"******* . %%%%%%%%%%%% . *******",
"****** +.. %%%%%%%%%% ..+ ******",
"****** ++++          ++++ ******",
"****** +++ ooo %% ooo +++ ******",
"*******   ooooo  o&ooo   *******",
"******* %% ooooooo&o& %% *******",
"******* %% oooooooooo %% *******",
"********  oooooooooooo  ********",
"*********              *********",
"********* &XXXXXXXX&X& *********",
"*********    XXXXXX&X& *********",
"********* OO           *********",
"*********    ******   **********",
"********************************"
};
