/* XPM */
static char *_1676_0965b8d548add9a0d3a79d6e1179d3ac421c37a8095b53ac70a1148c132bb859[] = {
/* columns rows colors chars-per-pixel */
"32 32 12 1 ",
"  c black",
". c #4D403A",
"X c #373748",
"o c #2E3552",
"O c #797979",
"+ c #8B695E",
"@ c #FFAE6C",
"# c #FFA678",
"$ c gray63",
"% c #FFDEBF",
"& c white",
"* c None",
/* pixels */
"********************************",
"********************************",
"********************************",
"*********             **********",
"******** $$$$$$$$$$$OO *********",
"******* $$$@$@$$$$$$$OO ********",
"****** O$$$&@@$$$$$$$OOO *******",
"****** O$      $$$$$$OOO *******",
"******   $$$$$$  $$$$OOO *******",
"*****  O$$$$$$$$O  $OOOO *******",
"**** OOOO      OOOO OOOO *******",
"****     ######  OOO OOO *******",
"*****  ##########     OO *******",
"*****  %   ###   % ...   *******",
"*****  %% %%%%% %% ..... *******",
"**** . %% %%%%% %% ...... ******",
"**** . %%%%%%%%%%%% ...... *****",
"*** .. %%%%   %%%%% ...... *****",
"*** .. %%%%%%%%%%%% ......+ ****",
"*** +.. %%%%%%%%%%% ...+..+ ****",
"*** ++++            ++++.++ ****",
"****     * o %% oooo ++++++ ****",
"***** %%   oo  oooooo      *****",
"***** %% % ooooo&o     *********",
"*****    % ooooooo %%  *********",
"*******    ooooooo %%  *********",
"**********             *********",
"********** &XXXXXX&X&XX ********",
"********** &XXXXXXX&X&X ********",
"********** &X        &X ********",
"*********    *******   *********",
"********************************"
};
