/* XPM */
static char *_8487_a3a7028ccf31c3a6dc7d8c4ef7d8f6f41216d0b0b5e5726b859e943f5c57a648[] = {
/* columns rows colors chars-per-pixel */
"32 32 3 1 ",
"  c black",
". c #DCD7D5",
"X c None",
/* pixels */
"XXXXXXXXXXXXXXXXXXXXXXX ........",
"XXXXXXXXXXXXXXXXXXXXXXX ........",
"XXXXXXXXXXXXXXXXXXXXXXX ........",
"XXXXXXXXXXXXXXXXXXXXXXX ........",
"XXXXXXXXXXXXXXXXXXXXXXX ........",
"XXXXXXXXXXXXXXXXXXXXXXX ........",
"XXXXXXXXXXXXXXXXXXXXXXX ........",
"XXXXXXXXXXXXXXXXXXXXXXXX .......",
"XXXXXXXXXXXXXXXXXXXXXXXXX       ",
"XXXXXXXXXXXXXXXXXXXXXXXXXXXXXXXX",
"XXXXXXXXXXXXXXXXXXXXXXXXXXXXXXXX",
"XXXXXXXXXXXXXXXXXXXXXXXXXXXXXXXX",
"XXXXXXXXXXXXXXXXXXXXXXXXXXXXXXXX",
"XXXXXXXXXXXXXXXXXXXXXXXXXXXXXXXX",
"XXXXXXXXXXXXXXXXXXXXXXXXXXXXXXXX",
"XXXXXXXXXXXXXXXXXXXXXXXXXXXXXXXX",
"XXXXXXXXXXXXXXXXXXXXXXXXXXXXXXXX",
"XXXXXXXXXXXXXXXXXXXXXXXXXXXXXXXX",
"XXXXXXXXXXXXXXXXXXXXXXXXXXXXXXXX",
"XXXXXXXXXXXXXXXXXXXXXXXXXXXXXXXX",
"XXXXXXXXXXXXXXXXXXXXXXXXXXXXXXXX",
"XXXXXXXXXXXXXXXXXXXXXXXXXXXXXXXX",
"XXXXXXXXXXXXXXXXXXXXXXXXXXXXXXXX",
"XXXXXXXXXXXXXXXXXXXXXXXXXXXXXXXX",
"XXXXXXXXXXXXXXXXXXXXXXXXXXXXXXXX",
"XXXXXXXXXXXXXXXXXXXXXXXXXXXXXXXX",
"XXXXXXXXXXXXXXXXXXXXXXXXXXXXXXXX",
"XXXXXXXXXXXXXXXXXXXXXXXXXXXXXXXX",
"XXXXXXXXXXXXXXXXXXXXXXXXXXXXXXXX",
"XXXXXXXXXXXXXXXXXXXXXXXXXXXXXXXX",
"XXXXXXXXXXXXXXXXXXXXXXXXXXXXXXXX",
"XXXXXXXXXXXXXXXXXXXXXXXXXXXXXXXX"
};
