/* XPM */
static char *_848_e3b48a662b4718bf91a88bd8b267511cf591b8b03aed87b45aa8eb4c01b88932[] = {
/* columns rows colors chars-per-pixel */
"31 32 7 1 ",
"  c black",
". c #639DD7",
"X c gray56",
"o c #BCBCBC",
"O c #9BC3EA",
"+ c #DCD7D5",
"@ c None",
/* pixels */
"+++++++ @@@@@@@@@@@@@@@@@@@@@@@",
"+++++++ @@@@@@@@@@@@@@@@@@@@@@@",
"+++++++ @@@@@@@@@@@@@@@@@@@@@@@",
"+++++++ @@@@@@@@@@@@@@@@@@@@@@@",
"ooooooo @@@@@@@@@@@@@@@@@@@@@@@",
"+++++++ @@@@@@@@@@@@@@@@@@@@@@@",
"+++++++ @@@@@@@@@@@@@@@@@@@@@@@",
"XXXXXX+ @@@@@@@@@@@@@@@@@@@@@@@",
"oXOO.X+ @@@@@@@@@@@@@@@@@@@@@@@",
"oXOO.X+ @@@@@@@@@@@@@@@@@@@@@@@",
"oXOO.X+ @@@@@@@@@@@@@@@@@@@@@@@",
"oXXXXX+ @@@@@@@@@@@@@@@@@@@@@@@",
"oooooX+ @@@@@@@@@@@@@@@@@@@@@@@",
"oXXXXX+ @@@@@@@@@@@@@@@@@@@@@@@",
"oXOO.X+ @@@@@@@@@@@@@@@@@@@@@@@",
"oXOO.X+ @@@@@@@@@@@@@@@@@@@@@@@",
"oXOO.X+ @@@@@@@@@@@@@@@@@@@@@@@",
"oXXXXX+ @@@@@@@@@@@@@@@@@@@@@@@",
"oooooX+ @@@@@@@@@@@@@@@@@@@@@@@",
"oXXXXX+ @@@@@@@@@@@@@@@@@@@@@@@",
"oXOO.X+ @@@@@@@@@@@@@@@@@@@@@@@",
"oXOO.X+ @@@@@@@@@@@@@@@@@@@@@@@",
"oXOO.X+ @@@@@@@@@@@@@@@@@@@@@@@",
"XXXXXX+ @@@@@@@@@@@@@@@@@@@@@@@",
"+++++++ @@@@@@@@@@@@@@@@@@@@@@@",
"+++++++ @@@@@@@@@@@@@@@@@@@@@@@",
"ooooooo @@@@@@@@@@@@@@@@@@@@@@@",
"+++++++ @@@@@@@@@@@@@@@@@@@@@@@",
"+++++++ @@@@@@@@@@@@@@@@@@@@@@@",
"+++++++ @@@@@@@@@@@@@@@@@@@@@@@",
"+++++++ @@@@@@@@@@@@@@@@@@@@@@@",
"+++++++ @@@@@@@@@@@@@@@@@@@@@@@"
};
