/* XPM */
static char *_3723_9540aeb22725fa3267fe304aeef5b0b6fce37ccae796404b8cfa6cf10ce9041a[] = {
/* columns rows colors chars-per-pixel */
"32 32 22 1 ",
"  c black",
". c #555151",
"X c gray38",
"o c #814927",
"O c #92522B",
"+ c #C17446",
"@ c gray56",
"# c #929292",
"$ c gray66",
"% c #AAAAAA",
"& c #BCBCBC",
"* c gray75",
"= c #E8D6BB",
"- c #C3C3C3",
"; c #D5D2D2",
": c #D9D7D3",
"> c #DCD7D5",
", c gray87",
"< c gray89",
"1 c #EDE6E6",
"2 c #FFF8EE",
"3 c white",
/* pixels */
"                                ",
">>>>>>>>>>>>>>>>>>>>>>>>>>>>>>>>",
">>>>>>>>>>>>>>>>>>>>>>>>>>>>>>>>",
">>>>>>>>>>>>>>>>>>>>>>>>>>>>>>>>",
"@@@@@@@@@@@@@@@@@@@@@@@@@@@@@@@@",
"OOOOOOOOOOOOOOOOOOOOOOOOOOOOOOOO",
"++++++++++++++++++++++++++++++++",
"++++++++++XXXXXXXX++++++++++++++",
"+++++++++XXXXXXXXXX+++++++++++++",
"+++++++++XXXXXXXXXX+++++++++++++",
"+++++        XXXXXX+        ++++",
"++++          XXXXX          +++",
"++++          XXXXX          +++",
"++++          #####          +++",
"+++222222     ####+  222222  +++",
"+++222222     +++++  222222  +++",
"$$$$2222,,,,,,$$$$$,,,2222,,,$$$",
"$$$$$==,  ,,,$$$$$$$,,,==,,,$$$$",
"++++*22++++++++++++++++22+++++++",
"+++332233&&++++++++++332233+++++",
"113;;22;;311111111113;;22;;31111",
"113;;;;;;311111111113;;;;;;31111",
"1o3------3oooooooooo3------3ooo1",
"1o3------3oooooooooo3------3ooo1",
"..3------3..oooooo..3------3..o1",
"12333%%3332oooooooo2333%%3332oo1",
"123--<<--32oooooooo23--<<--32oo1",
"12o333333o2oooooooo2o333333o2oo1",
"1o2..33..2oooooooooo2..33..2ooo1",
"1oooo::oooooooooooooooo::oooooo1",
"1oooo::oooooooooooooooo::oooooo1",
"1o.::::::.oooooooooo.::::::.ooo1"
};
