/* XPM */
static char *_3249_995df0ab6df2e4987c6e3c6d744e01aba1a0864cfffd7bcc6fcf3c1ad73f95b7[] = {
/* columns rows colors chars-per-pixel */
"32 32 7 1 ",
"  c black",
". c #639DD7",
"X c gray56",
"o c #BCBCBC",
"O c #9BC3EA",
"+ c #DCD7D5",
"@ c None",
/* pixels */
"@@@@@@@@@@@@@@@@@@@@@@@ +++++++X",
"@@@@@@@@@@@@@@@@@@@@@@@ +++++++X",
"@@@@@@@@@@@@@@@@@@@@@@@ +++++++X",
"@@@@@@@@@@@@@@@@@@@@@@@ +++++++X",
"@@@@@@@@@@@@@@@@@@@@@@@ oooooooX",
"@@@@@@@@@@@@@@@@@@@@@@@ +++++++X",
"@@@@@@@@@@@@@@@@@@@@@@@ +++++++X",
"@@@@@@@@@@@@@@@@@@@@@@@ +XXXXXXX",
"@@@@@@@@@@@@@@@@@@@@@@@ +X.OOXoX",
"@@@@@@@@@@@@@@@@@@@@@@@ +X.OOXoX",
"@@@@@@@@@@@@@@@@@@@@@@@ +X.OOXoX",
"@@@@@@@@@@@@@@@@@@@@@@@ +XXXXXoX",
"@@@@@@@@@@@@@@@@@@@@@@@ +XoooooX",
"@@@@@@@@@@@@@@@@@@@@@@@ +XXXXXoX",
"@@@@@@@@@@@@@@@@@@@@@@@ +X.OOXoX",
"@@@@@@@@@@@@@@@@@@@@@@@ +X.OOXoX",
"@@@@@@@@@@@@@@@@@@@@@@@ +X.OOXoX",
"@@@@@@@@@@@@@@@@@@@@@@@ +XXXXXoX",
"@@@@@@@@@@@@@@@@@@@@@@@ +XoooooX",
"@@@@@@@@@@@@@@@@@@@@@@@ +XXXXXoX",
"@@@@@@@@@@@@@@@@@@@@@@@ +X.OOXoX",
"@@@@@@@@@@@@@@@@@@@@@@@ +X.OOXoX",
"@@@@@@@@@@@@@@@@@@@@@@@ +X.OOXoX",
"@@@@@@@@@@@@@@@@@@@@@@@ +XXXXXXX",
"@@@@@@@@@@@@@@@@@@@@@@@ +++++++X",
"@@@@@@@@@@@@@@@@@@@@@@@ +++++++X",
"@@@@@@@@@@@@@@@@@@@@@@@ oooooooX",
"@@@@@@@@@@@@@@@@@@@@@@@ +++++++X",
"@@@@@@@@@@@@@@@@@@@@@@@ +++++++X",
"@@@@@@@@@@@@@@@@@@@@@@@ +++++++X",
"@@@@@@@@@@@@@@@@@@@@@@@ +++++++X",
"@@@@@@@@@@@@@@@@@@@@@@@ +++++++X"
};
