/* XPM */
static char *cd905e7788ba4765ec49c3e08d5b41a0R2rCmbXj0I5Okahv[] = {
/* columns rows colors chars-per-pixel */
"32 32 8 1 ",
"  c black",
". c #343343",
"X c #92522B",
"o c #AE4943",
"O c #C17446",
"+ c #BCBCBC",
"@ c #DCD7D5",
"# c white",
/* pixels */
"                                ",
"@@@@@@@@@@@@@@@@@@@@@@@@@@@@@@@@",
"@@@@@@@@@@@@@@@@@@@@@@@@@@@@@@@@",
"@@@@@@@@@@@@@@@@@@@@@@@@@@@@@@@@",
"++++++++++++++++++++++++++++++++",
"XXXXXXXXXXXXXXXXXXXXXXXXXXXXXXXX",
"OOOOOOOOOOOO########OOOOOOOOOOOO",
"OOOOOOOOOOO#oooooooo#OOOOOOOOOOO",
"OOOOOOOOOO#o########o#OOOOOOOOOO",
"OOOOOOOOO#o#oo###ooo#o#OOOOOOOOO",
"OOOOOOOO#o###oo###ooo#o#OOOOOOOO",
"OOOOOOO#o#o###oo###ooo#o#OOOOOOO",
"OOOOOOO#o#oo###oo###oo#o#OOOOOOO",
"OOOOOOO#o##oo###oo###o#o#OOOOOOO",
"OOOOOOO#o###oo#oooo####o#OOOOOOO",
"OOOOOOO#o####oooo#oo###o#OOOOOOO",
"OOOOOOO#o#o###oo###oo##o#OOOOOOO",
"OOOOOOO#o#oo###oo###oo#o#OOOOOOO",
"OOOOOOO#o#ooo###oo###o#o#OOOOOOO",
"OOOOOOOO#o#ooo###oo###o#OOOOOOOO",
"OOOOOOOOO#o#ooo###oo#o#OOOOOOOOO",
"OOOOOOOOOO#o########o#OOOOOOOOOO",
"OOOOOOOOOOO#oooooooo#OOOOOOOOOOO",
"OOOOOOOOOOOO########OOOOOOOOOOOO",
"OOOOOOO..................OOOOOOO",
"OOOOOOO..##..###.###.###.OOOOOOO",
"OOOOOOO..#.#.#...#....#..OOOOOOO",
"OOOOOOO..##..###.###..#..OOOOOOO",
"OOOOOOO..#.#.#.....#..#..OOOOOOO",
"OOOOOOO..##..###.###..#..OOOOOOO",
"OOOOOOO..................OOOOOOO",
"OOOOOOOOOOOOOOOOOOOOOOOOOOOOOOOO"
};
