/* XPM */
static char *_694_11420667efe953668e5f58e0a75c00fae21adb4e09f80dbec604afee7f248c86[] = {
/* columns rows colors chars-per-pixel */
"32 32 7 1 ",
"  c black",
". c #639DD7",
"X c gray56",
"o c #BCBCBC",
"O c #9BC3EA",
"+ c #DCD7D5",
"@ c None",
/* pixels */
"@@@@@@@@@@@@@@@@@@@@@@@@@       ",
"@@@@@@@@@@@@@@@@@@@@@@@@ +++++++",
"@@@@@@@@@@@@@@@@@@@@@@@ ++++++++",
"@@@@@@@@@@@@@@@@@@@@@@@ ++++++++",
"@@@@@@@@@@@@@@@@@@@@@@@ ++++++++",
"@@@@@@@@@@@@@@@@@@@@@@@ oooooooX",
"@@@@@@@@@@@@@@@@@@@@@@@ +++++++X",
"@@@@@@@@@@@@@@@@@@@@@@@ +++++++X",
"@@@@@@@@@@@@@@@@@@@@@@@ +XXXXXXX",
"@@@@@@@@@@@@@@@@@@@@@@@ +X.OOXoX",
"@@@@@@@@@@@@@@@@@@@@@@@ +X.OOXoX",
"@@@@@@@@@@@@@@@@@@@@@@@ +X.OOXoX",
"@@@@@@@@@@@@@@@@@@@@@@@ +XXXXXoX",
"@@@@@@@@@@@@@@@@@@@@@@@ +XoooooX",
"@@@@@@@@@@@@@@@@@@@@@@@ +XXXXXoX",
"@@@@@@@@@@@@@@@@@@@@@@@ +X.OOXoX",
"@@@@@@@@@@@@@@@@@@@@@@@ +X.OOXoX",
"@@@@@@@@@@@@@@@@@@@@@@@ +XXXXXoX",
"@@@@@@@@@@@@@@@@@@@@@@@ +XoooooX",
"@@@@@@@@@@@@@@@@@@@@@@@ +XXXXXoX",
"@@@@@@@@@@@@@@@@@@@@@@@ +X.OOXoX",
"@@@@@@@@@@@@@@@@@@@@@@@ +X.OOXoX",
"@@@@@@@@@@@@@@@@@@@@@@@ +X.OOXoX",
"@@@@@@@@@@@@@@@@@@@@@@@ +XXXXXXX",
"@@@@@@@@@@@@@@@@@@@@@@@ +++++++X",
"@@@@@@@@@@@@@@@@@@@@@@@ +++++++X",
"@@@@@@@@@@@@@@@@@@@@@@@ oooooooX",
"@@@@@@@@@@@@@@@@@@@@@@@ +++++++X",
"@@@@@@@@@@@@@@@@@@@@@@@ +++++++X",
"@@@@@@@@@@@@@@@@@@@@@@@ +++++++X",
"@@@@@@@@@@@@@@@@@@@@@@@ +++++++X",
"@@@@@@@@@@@@@@@@@@@@@@@ +++++++X"
};
