/* XPM */
static char *_0772_0c4c2cc30100b3f2b352cac43a6f2dcee0311abb7eca767a64008a5ab1c0293a[] = {
/* columns rows colors chars-per-pixel */
"32 32 7 1 ",
"  c black",
". c #639DD7",
"X c gray56",
"o c #BCBCBC",
"O c #9BC3EA",
"+ c #DCD7D5",
"@ c None",
/* pixels */
"X+++++++ @@@@@@@@@@@@@@@@@@@@@@@",
"X+++++++ @@@@@@@@@@@@@@@@@@@@@@@",
"X+++++++ @@@@@@@@@@@@@@@@@@@@@@@",
"X+++++++ @@@@@@@@@@@@@@@@@@@@@@@",
"Xooooooo @@@@@@@@@@@@@@@@@@@@@@@",
"X+++++++ @@@@@@@@@@@@@@@@@@@@@@@",
"X+++++++ @@@@@@@@@@@@@@@@@@@@@@@",
"XXXXXXX+ @@@@@@@@@@@@@@@@@@@@@@@",
"XoXOO.X+ @@@@@@@@@@@@@@@@@@@@@@@",
"XoXOO.X+ @@@@@@@@@@@@@@@@@@@@@@@",
"XoXOO.X+ @@@@@@@@@@@@@@@@@@@@@@@",
"XoXXXXX+ @@@@@@@@@@@@@@@@@@@@@@@",
"XoooooX+ @@@@@@@@@@@@@@@@@@@@@@@",
"XoXXXXX+ @@@@@@@@@@@@@@@@@@@@@@@",
"XoXOO.X+ @@@@@@@@@@@@@@@@@@@@@@@",
"XoXOO.X+ @@@@@@@@@@@@@@@@@@@@@@@",
"XoXOO.X+ @@@@@@@@@@@@@@@@@@@@@@@",
"XoXXXXX+ @@@@@@@@@@@@@@@@@@@@@@@",
"XoooooX+ @@@@@@@@@@@@@@@@@@@@@@@",
"XoXXXXX+ @@@@@@@@@@@@@@@@@@@@@@@",
"XoXOO.X+ @@@@@@@@@@@@@@@@@@@@@@@",
"XoXOO.X+ @@@@@@@@@@@@@@@@@@@@@@@",
"XoXOO.X+ @@@@@@@@@@@@@@@@@@@@@@@",
"XXXXXXX+ @@@@@@@@@@@@@@@@@@@@@@@",
"X+++++++ @@@@@@@@@@@@@@@@@@@@@@@",
"X+++++++ @@@@@@@@@@@@@@@@@@@@@@@",
"Xooooooo @@@@@@@@@@@@@@@@@@@@@@@",
"X+++++++ @@@@@@@@@@@@@@@@@@@@@@@",
"X+++++++ @@@@@@@@@@@@@@@@@@@@@@@",
"X+++++++ @@@@@@@@@@@@@@@@@@@@@@@",
"X+++++++ @@@@@@@@@@@@@@@@@@@@@@@",
"X+++++++ @@@@@@@@@@@@@@@@@@@@@@@"
};
