/* XPM */
static char *_4f012ace961429eee118831d1318bc2M4yCNYjzOM8phYrj[] = {
/* columns rows colors chars-per-pixel */
"32 32 6 1 ",
"  c None",
". c black",
"X c #398839",
"o c #5CB85C",
"O c #8D8D8D",
"+ c white",
/* pixels */
"                                ",
"             +++++              ",
"            ++...++             ",
"           ++.XXX.++            ",
"           +.XoooX.+            ",
"           +.ooooo.+            ",
"           +.ooooo.+            ",
"           +.ooooo.+            ",
"           +.ooooo.+            ",
"           +.ooooo.+            ",
"           +.ooooo.+            ",
"           +.ooooo.+            ",
"           +.ooooo.+            ",
"           +.ooooo.+            ",
"           +.ooooo.+            ",
"           +.ooooo.+            ",
"           +.ooooo.+            ",
"           +.ooooo.+            ",
"           +.ooooo.+            ",
"           +.ooooo.+            ",
"           +.ooooo.+            ",
"           +.ooooo.+            ",
"           +.ooooo.+            ",
"           +.ooooo.+            ",
"           +.ooooo.+            ",
"           +.XoooX.+            ",
"           ++.XXX.++            ",
"            ++...++             ",
"             +++++              ",
"             OOOOO              ",
"           OOOOOOOOO            ",
"             OOOOO              "
};
