/* XPM */
static char *_e56defa3e3241bfd3acf2fbf4c6a7df3MQS4V7BP0l7ITh2[] = {
/* columns rows colors chars-per-pixel */
"32 32 6 1 ",
"  c None",
". c black",
"X c #398839",
"o c #5CB85C",
"O c #8D8D8D",
"+ c white",
/* pixels */
"                                ",
"            +++++++             ",
"         ++++.....++++          ",
"        ++...XXXXX...++         ",
"      +++.XXXoooooXXX.+++       ",
"     ++..XoooooooooooX..++      ",
"     +.XXoo+o+++o+++ooXX.+      ",
"    ++.Xooo+o+o+o+o+oooX.++     ",
"    +.Xoooo+o+++o+++ooooX.+     ",
"   ++.XoooooooooooooooooX.++    ",
"   +.XoooooooooooooooooooX.+    ",
"  ++.Xoooooooooooooo+ooooX.++   ",
"  +.Xoooooooooooooo+++ooooX.+   ",
"  +.Xooooooooooooo+++++oooX.+   ",
"  +.Xoooooo+ooooo+++++ooooX.+   ",
"  +.Xooooo+++ooo+++++oooooX.+   ",
"  +.Xoooo+++++o+++++ooooooX.+   ",
"  +.Xooooo+++++++++oooooooX.+   ",
"  ++.Xooooo+++++++oooooooX.++   ",
"   +.Xoooooo+++++ooooooooX.+    ",
"   +.Xooooooo+++oooooooooX.+    ",
"   ++.Xooooooo+oooooooooX.++    ",
"    ++.XoooooooooooooooX.++     ",
"     +.XoooooooooooooooX.+      ",
"     ++.XXoooooooooooXX.++      ",
"      ++..XXXoooooXXX..++       ",
"       +++...XXXXX...+++        ",
"         ++++.....++++          ",
"            +++++++             ",
"            OOOOOOO             ",
"         OOOOOOOOOOOOO          ",
"            OOOOOOO             "
};
