/* XPM */
static char *char_n21623946237[] = {
/* columns rows colors chars-per-pixel */
"32 32 7 1 ",
"  c None",
". c black",
"X c #3E3E3E",
"o c #46362F",
"O c #4A5368",
"+ c #FF740A",
"@ c #FFE1C7",
/* pixels */
"                                ",
"                                ",
"                                ",
"                                ",
"           ..........           ",
"          .oooooooooo.          ",
"         .oooooooooooo.         ",
"        .oooooooooooooo.        ",
"        .oooooooooooooo.        ",
"        .oooooooooooooo.        ",
"        .oooooooooooooo.        ",
"        .oooooooooooooo.        ",
"        .oooooooooooooo.        ",
"        .ooooooooooooo..        ",
"         .oooooooooooo.         ",
"         .oooooooooooo.         ",
"         .oooooooooooo.         ",
"         .oooooooooooo.         ",
"         .oooooooooooo.         ",
"          .oooooooooo.          ",
"           ..........           ",
"          .++++++++++.          ",
"        ...++++++++++...        ",
"       .@@.++++++++++.@@.       ",
"       .@.++++++++++++.@.       ",
"        ..++++++++++++..        ",
"         ..............         ",
"         .OOOOOOOOOOOO.         ",
"         .OOOOOOOOO....         ",
"         .OOO.......X..         ",
"          ...      ...          ",
"                                "
};
