/* XPM */
static char *char_s21623946238[] = {
/* columns rows colors chars-per-pixel */
"32 32 10 1 ",
"  c None",
". c black",
"X c #3E3E3E",
"o c #46362F",
"O c #4A5368",
"+ c #777777",
"@ c #FF740A",
"# c #E3925B",
"$ c #FFE1C7",
"% c white",
/* pixels */
"                                ",
"                                ",
"                                ",
"                                ",
"           ..........           ",
"          .oooooooooo.          ",
"         .oooooooooooo.         ",
"        .oooooooooooooo.        ",
"        .oooooooooooooo.        ",
"        .oooooooooooooo.        ",
"        .oooooooooo.ooo.        ",
"        .oooooooo..$.oo.        ",
"        .ooooo...$$$$.o.        ",
"        .o....$$$$$$$$..        ",
"         .+$$$+$$+$$$+.         ",
"         .+...++++...+.         ",
"         .+$$$+##+$$$+.         ",
"         .$+++$##$+++$.         ",
"         .$$$$####$$$$.         ",
"          .$$$$$$$$$$.          ",
"           ..........           ",
"          .@@@.$$.@@@.          ",
"        ..@@@@@..@@@@@..        ",
"       .$$.@@@@@@@@@@.$$.       ",
"       .$$.@@%%%%%%@@.$$.       ",
"        ..@@@@@@@@@@@@..        ",
"         ..............         ",
"         .OOOOOOOOOOOO.         ",
"         .OOOOOOOOO....         ",
"         ...........XX.         ",
"          ...      ...          ",
"                                "
};
