/* XPM */
static char *_5635_33623abe8c87f2a95b73087782573f9c0340ee36f6b77bea875904f085aca3aa[] = {
/* columns rows colors chars-per-pixel */
"32 32 12 1 ",
"  c black",
". c #4D403A",
"X c #373748",
"o c #2E3552",
"O c #797979",
"+ c #8B695E",
"@ c #FFAE6C",
"# c #FFA678",
"$ c gray63",
"% c #FFDEBF",
"& c white",
"* c None",
/* pixels */
"********************************",
"********************************",
"********************************",
"*********             **********",
"******** OO$$$$$$$$$$$ *********",
"******* OO$$$$$$$@$@$$$ ********",
"****** OOO$$$$$$$&@@$$$O *******",
"****** OOO$$$$$$      $O *******",
"****** OOO$$$$  $$$$$$   *******",
"****** OOOO$  O$$$$$$$$O  ******",
"****** OOOO OOOO      OOOO *****",
"****** OOO OOO  ######     *****",
"****** OO     ##########  ******",
"******   ... %   ###   %  ******",
"****** ..... %% %%%%% %%  ******",
"***** ...... %% %%%%% %% . *****",
"**** ...... %%%%%%%%%%%% . *****",
"**** ...... %%%%%   %%%% .. ****",
"*** +...... %%%%%%%%%%%% .. ****",
"*** +..+... %%%%%%%%%%% ..+ ****",
"*** ++.++++            ++++ ****",
"*** ++++++ oooo %% o *     *****",
"****      oooooo  oo   %% ******",
"********     ooooo&o % %% ******",
"********  %% ooooooo %    ******",
"********  %% ooooooo    ********",
"********             ***********",
"******* XX&X&XXXXXX& ***********",
"******* X&X&XXXXXXX& ***********",
"******* X&        X& ***********",
"********   *******    **********",
"********************************"
};
