/* XPM */
static char *_699_72bb68c9685d83a2ed92dbd94ab2d0431615f49ec3c0c5ebe0d8eaf5eeee5188[] = {
/* columns rows colors chars-per-pixel */
"32 32 11 1 ",
"  c black",
". c #4D403A",
"X c #373748",
"o c #2E3552",
"O c #797979",
"+ c #8B695E",
"@ c gray61",
"# c gray63",
"$ c #FFDEBF",
"% c white",
"& c None",
/* pixels */
"&&&&&&&&&&&&&&&&&&&&&&&&&&&&&&&&",
"&&&&&&&&&&&&&&&&&&&&&&&&&&&&&&&&",
"&&&&&&&&&&&&&&&&&&&&&&&&&&&&&&&&",
"&&&&&&&&&&            &&&&&&&&&&",
"&&&&&&&&& O##########O &&&&&&&&&",
"&&&&&&&& OO##########OO &&&&&&&&",
"&&&&&&& OOO##########OOO &&&&&&&",
"&&&&&&& OOO##      ##OOO &&&&&&&",
"&&&&&&& OOO## .... ##OOO &&&&&&&",
"&&&&&&& OOO##      ##OOO &&&&&&&",
"&&&&&&& OOO##########OOO &&&&&&&",
"&&&&&&& OOOO        OOOO &&&&&&&",
"&&&&&&& O   ........   O &&&&&&&",
"&&&&&&&  ..............  &&&&&&&",
"&&&&&&& ................ &&&&&&&",
"&&&&&&& ................ &&&&&&&",
"&&&&&&& ................ &&&&&&&",
"&&&&&&& ................ &&&&&&&",
"&&&&&&& ................ &&&&&&&",
"&&&&&& +..++++...+++++... &&&&&&",
"&&&&&& ++++++++++++++++++ &&&&&&",
"&&&&&& +++    +++     +++ &&&&&&",
"&&&&&&&   oooo   ooo o   &&&&&&&",
"&&&&&&& $$ oooooooooo $$ &&&&&&&",
"&&&&&&& $ oooooooooooo $ &&&&&&&",
"&&&&&&&&  oooooooooooo  &&&&&&&&",
"&&&&&&&&&              &&&&&&&&&",
"&&&&&&&&& %X%XXXXXXXX% &&&&&&&&&",
"&&&&&&&&& %X%XXXXXX    &&&&&&&&&",
"&&&&&&&&& %X%       @  &&&&&&&&&",
"&&&&&&&&&    &&&&&&   &&&&&&&&&&",
"&&&&&&&&&&&&&&&&&&&&&&&&&&&&&&&&"
};
