/* XPM */
static char *_9772_6cb52de9ab4a92b69755c0b9e65eccaa3d3b5774ab8f95628ad728b266943779[] = {
/* columns rows colors chars-per-pixel */
"32 32 6 1 ",
"  c black",
". c #A3404A",
"X c #D8636F",
"o c #8D8D8D",
"O c white",
"+ c None",
/* pixels */
"++++++++++++++++++++++++++++++++",
"++++++++++++OOOOOOO+++++++++++++",
"+++++++++OOOO     OOOO++++++++++",
"++++++++OO   .....   OO+++++++++",
"++++++OOO ...XXXXX... OOO+++++++",
"+++++OO  .XXXXXXXXXXX.  OO++++++",
"+++++O ..OOOXXOXXOXOXX.. O++++++",
"++++OO .XOXXXOXOXOXOXXX. OO+++++",
"++++O .XXOOOXOOOXOXOXXXX. O+++++",
"+++OO .XXOXXXOXOXOXOOOXX. OO++++",
"+++O .XXXXXXXXXXXXXXXXXXX. O++++",
"++OO .XXXXXXXXXXXXXXXXXXX. OO+++",
"++O .XXXXXXXOXXXXXOXXXXXXX. O+++",
"++O .XXXXXXOOOXXXOOOXXXXXX. O+++",
"++O .XXXXXOOOOOXOOOOOXXXXX. O+++",
"++O .XXXXXXOOOOOOOOOXXXXXX. O+++",
"++O .XXXXXXXOOOOOOOXXXXXXX. O+++",
"++O .XXXXXXXXOOOOOXXXXXXXX. O+++",
"++OO .XXXXXXOOOOOOOXXXXXX. OO+++",
"+++O .XXXXXOOOOOOOOOXXXXX. O++++",
"+++O .XXXXOOOOOXOOOOOXXXX. O++++",
"+++OO .XXXXOOOXXXOOOXXXX. OO++++",
"++++OO .XXXXOXXXXXOXXXX. OO+++++",
"+++++O .XXXXXXXXXXXXXXX. O++++++",
"+++++OO ..XXXXXXXXXXX.. OO++++++",
"++++++OO  ...XXXXX...  OO+++++++",
"+++++++OOO   .....   OOO++++++++",
"+++++++++OOOO     OOOO++++++++++",
"++++++++++++OOOOOOO+++++++++++++",
"++++++++++++ooooooo+++++++++++++",
"+++++++++ooooooooooooo++++++++++",
"++++++++++++ooooooo+++++++++++++"
};
