/* XPM */
static char *_b0c9e1ded0349179ca7e0f72f36c7507cfsEUHshX9HDwZ7[] = {
/* columns rows colors chars-per-pixel */
"32 32 9 1 ",
"  c black",
". c #343343",
"X c #3F3E4C",
"o c #92522B",
"O c #C17446",
"+ c #BCBCBC",
"@ c #DCD7D5",
"# c gray98",
"$ c white",
/* pixels */
"                                ",
"@@@@@@@@@@@@@@@@@@@@@@@@@@@@@@@@",
"@@@@@@@@@@@@@@@@@@@@@@@@@@@@@@@@",
"@@@@@@@@@@@@@@@@@@@@@@@@@@@@@@@@",
"++++++++++++++++++++++++++++++++",
"oooooooooooooooooooooooooooooooo",
"OOOOOOOOOOOOOOOOOOOOOOOOOOOOOOOO",
"OOOOOOOOOOOOOOOOOOOOOOOOOOOOOOOO",
"OOOOOOOOOOOOOOOOOOOOOOOOOOOOOOOO",
"OOOOOOO..................OOOOOOO",
"OOOOOOO.$$..###.##..#..#.OOOOOOO",
"OOOOOOO.$.$.#.#.#.#.##.#.OOOOOOO",
"OOOOOOO.$$X.#.#.##X.##.#.OOOOOOO",
"OOOOOOO.$.$.#.#.#.#.#.##.OOOOOOO",
"OOOOOOO.$$..###.#.#.#.##.OOOOOOO",
"OOOOOOO..................OOOOOOO",
"OOOOOOO........##........OOOOOOO",
"OOOOOOO.........#........OOOOOOO",
"OOOOOOO........##........OOOOOOO",
"OOOOOOO........#.........OOOOOOO",
"OOOOOOO........##........OOOOOOO",
"OOOOOOO..................OOOOOOO",
"OOOOOOO.###.###.##..###..OOOOOOO",
"OOOOOOO.#...#.#.#.#.#....OOOOOOO",
"OOOOOOO.#...#.#.#.#.###..OOOOOOO",
"OOOOOOO.#...#.#.#.#.#....OOOOOOO",
"OOOOOOO.###.###.##..###..OOOOOOO",
"OOOOOOO..................OOOOOOO",
"OOOOOOOOOOOOOOOOOOOOOOOOOOOOOOOO",
"OOOOOOOOOOOOOOOOOOOOOOOOOOOOOOOO",
"OOOOOOOOOOOOOOOOOOOOOOOOOOOOOOOO",
"OOOOOOOOOOOOOOOOOOOOOOOOOOOOOOOO"
};
