/* XPM */
static char *_0062_43b5207905156af5b846037b2b6df53ae744e1be48603c9cecd86ab24695445d[] = {
/* columns rows colors chars-per-pixel */
"32 32 7 1 ",
"  c black",
". c #639DD7",
"X c gray56",
"o c #BCBCBC",
"O c #9BC3EA",
"+ c #DCD7D5",
"@ c None",
/* pixels */
"       @@@@@@@@@@@@@@@@@@@@@@@@@",
"+++++++ @@@@@@@@@@@@@@@@@@@@@@@@",
"++++++++ @@@@@@@@@@@@@@@@@@@@@@@",
"++++++++ @@@@@@@@@@@@@@@@@@@@@@@",
"++++++++ @@@@@@@@@@@@@@@@@@@@@@@",
"Xooooooo @@@@@@@@@@@@@@@@@@@@@@@",
"X+++++++ @@@@@@@@@@@@@@@@@@@@@@@",
"X+++++++ @@@@@@@@@@@@@@@@@@@@@@@",
"XXXXXXX+ @@@@@@@@@@@@@@@@@@@@@@@",
"XoXOO.X+ @@@@@@@@@@@@@@@@@@@@@@@",
"XoXOO.X+ @@@@@@@@@@@@@@@@@@@@@@@",
"XoXOO.X+ @@@@@@@@@@@@@@@@@@@@@@@",
"XoXXXXX+ @@@@@@@@@@@@@@@@@@@@@@@",
"XoooooX+ @@@@@@@@@@@@@@@@@@@@@@@",
"XoXXXXX+ @@@@@@@@@@@@@@@@@@@@@@@",
"XoXOO.X+ @@@@@@@@@@@@@@@@@@@@@@@",
"XoXOO.X+ @@@@@@@@@@@@@@@@@@@@@@@",
"XoXXXXX+ @@@@@@@@@@@@@@@@@@@@@@@",
"XoooooX+ @@@@@@@@@@@@@@@@@@@@@@@",
"XoXXXXX+ @@@@@@@@@@@@@@@@@@@@@@@",
"XoXOO.X+ @@@@@@@@@@@@@@@@@@@@@@@",
"XoXOO.X+ @@@@@@@@@@@@@@@@@@@@@@@",
"XoXOO.X+ @@@@@@@@@@@@@@@@@@@@@@@",
"XXXXXXX+ @@@@@@@@@@@@@@@@@@@@@@@",
"X+++++++ @@@@@@@@@@@@@@@@@@@@@@@",
"X+++++++ @@@@@@@@@@@@@@@@@@@@@@@",
"Xooooooo @@@@@@@@@@@@@@@@@@@@@@@",
"X+++++++ @@@@@@@@@@@@@@@@@@@@@@@",
"X+++++++ @@@@@@@@@@@@@@@@@@@@@@@",
"X+++++++ @@@@@@@@@@@@@@@@@@@@@@@",
"X+++++++ @@@@@@@@@@@@@@@@@@@@@@@",
"X+++++++ @@@@@@@@@@@@@@@@@@@@@@@"
};
