/* XPM */
static char *_4916c65838a4fce92e241799a2c174biUSyfzKtInw1Hm7H[] = {
/* columns rows colors chars-per-pixel */
"32 32 3 1 ",
"  c None",
". c black",
"X c #DCD7D5",
/* pixels */
"XXXXXXXX.                       ",
"XXXXXXXX.                       ",
"XXXXXXXX.                       ",
"XXXXXXXX.                       ",
"XXXXXXXX.                       ",
"XXXXXXXX.                       ",
"XXXXXXXX.                       ",
"XXXXXXX.                        ",
".......                         ",
"                                ",
"                                ",
"                                ",
"                                ",
"                                ",
"                                ",
"                                ",
"                                ",
"                                ",
"                                ",
"                                ",
"                                ",
"                                ",
"                                ",
"                                ",
"                                ",
"                                ",
"                                ",
"                                ",
"                                ",
"                                ",
"                                ",
"                                "
};
