/* XPM */
static char *result[] = {
/* columns rows colors chars-per-pixel */
"16 16 3 1 ",
"  c #5883A2",
". c white",
"1 c NONE",
/* pixels */
"1111        1111",
"111 ........ 111",
"11 .  ...   . 11",
"1 ...  ...   . 1",
" . ...  .     . ",
" .  ...    .  . ",
" ..  ...  ... . ",
" ...  ...  .... ",
" ....  ...  ... ",
" . .    ...  .. ",
" .    .  ...  . ",
" .   ...  ... . ",
"1 .   ...  ... 1",
"11 .   ...  . 11",
"111 ........ 111",
"1111        1111"
};
