/* XPM */
static char *bg1623946236[] = {
/* columns rows colors chars-per-pixel */
"32 32 4 1 ",
"  c black",
". c #BCBCBC",
"X c #FFCE96",
"o c #FFE5C7",
/* pixels */
"................................",
"................................",
"................................",
"................................",
"................................",
"................................",
"..............    ..............",
"............. oooo .............",
"............ oooooo ............",
"............ oooooo ............",
"........... oooooooo ...........",
"........... oooooooo ...........",
"........... oooooooo ...........",
"........... oooooooo ...........",
".......... oooooooooo ..........",
".......... oooooooooo ..........",
"......... oooooooooooo .........",
"......... oooooooooooo .........",
"........ oooooooooooooo ........",
"........ oooooooooooooo ........",
"........ oooXooooooXooo ........",
"........ XXXXooooooXXXX ........",
"......... XXXXooooXXXX .........",
"..........    XXXX    ..........",
"..............    ..............",
"................................",
"................................",
"................................",
"................................",
"................................",
"................................",
"................................"
};
