/* XPM */
static char *char_w1623946238[] = {
/* columns rows colors chars-per-pixel */
"32 32 9 1 ",
"  c None",
". c black",
"X c #46362F",
"o c #4A5368",
"O c #777777",
"+ c #FF740A",
"@ c #E3925B",
"# c #FFE1C7",
"$ c white",
/* pixels */
"                                ",
"                                ",
"                                ",
"                                ",
"         ............           ",
"        .XXXXXXXXXXXX.          ",
"       .XXXXXXXXXXXXXX.         ",
"      .XXXXXXXXXXXXXXXX.        ",
"      .XXXXXXXXXXXXXXXXX.       ",
"     .XXXXXXXX.XXXXXXXXX.       ",
"     .XXXXXXX.#.XXXXXXXX.       ",
"     .XXX....###.XXXXXXX.       ",
"      ...########.XXXXXX.       ",
"      .###########.XXXXX.       ",
"      .O...OOO...#O.XXXX.       ",
"      .O###@@@O###O...XX.       ",
"      .#OOO@@@#OOO#.##.X.       ",
"      .###@@@@#####.##..        ",
"      .##############..         ",
"       .###########...          ",
"        ...........++.          ",
"     .... .+.##.++++++.         ",
"     .##...++..+++++++.         ",
"     .##.#.+++++++.....         ",
"     ....#.+$$$$++.##..         ",
"       ....+++++++.##..         ",
"          .............         ",
"          .oooooooooooo.        ",
"          .oooooooooooo.        ",
"          .o.........oo.        ",
"         ....       ...         ",
"                                "
};
