/* XPM */
static char *char_e1623946237[] = {
/* columns rows colors chars-per-pixel */
"32 32 9 1 ",
"  c None",
". c black",
"X c #46362F",
"o c #4A5368",
"O c #777777",
"+ c #FF740A",
"@ c #E3925B",
"# c #FFE1C7",
"$ c white",
/* pixels */
"                                ",
"                                ",
"                                ",
"                                ",
"          ............          ",
"         .XXXXXXXXXXXX.         ",
"        .XXXXXXXXXXXXXX.        ",
"       .XXXXXXXXXXXXXXXX.       ",
"      .XXXXXXXXXXXXXXXXX.       ",
"      .XXXXXXXXXXXXX.XXXX.      ",
"      .XXXXXXXXXXXX.#.XXX.      ",
"      .XXXXXXXXXXX.###.XX.      ",
"      .XXXXXXXXX..#####..       ",
"      .XXXXXXX..########.       ",
"      .XXXX......OOO...O.       ",
"      .XX...O###O@@@###O.       ",
"      .X.##.#OOO#@@@OOO#.       ",
"       ..##.#####@@@@###.       ",
"        ..##############.       ",
"         ...###########.        ",
"         .++...........         ",
"        .++++++.##.+. ....      ",
"        .+++++++..++...##.      ",
"        .....+++++++.#.##.      ",
"        ..##.++$$$$+.#....      ",
"        ..##.+++++++....        ",
"        .............           ",
"       .oooooooooooo.           ",
"       .oooooooooooo.           ",
"       .oo.........o.           ",
"        ...       ....          ",
"                                "
};
