/* XPM */
static char *fail_21623946238[] = {
/* columns rows colors chars-per-pixel */
"32 32 8 1 ",
"  c None",
". c black",
"X c #322727",
"o c #323232",
"O c #484848",
"+ c #8D8D8D",
"@ c #C3A999",
"# c white",
/* pixels */
"                                ",
"                                ",
"                                ",
"                                ",
"                                ",
"                                ",
"                                ",
"                                ",
"                                ",
"                                ",
"                                ",
"           #########            ",
"          ##.......##           ",
"         ##.OOOOOOO.##          ",
"        ##.OOOoooOOO.##         ",
"        #.OOOo@@@oOOO.#         ",
"        #.OOOo...oOOO.#         ",
"        #.OOO.XXX.OOO.#         ",
"        #.OO.XXXXX.OO.#         ",
"        ##.O.XXXXX.O.##         ",
"         ##..XXXXX..##          ",
"          #.O.XXX.O.#           ",
"          #.OO...OO.#           ",
"          #.OOOOOOO.#           ",
"          #.OOOOOOO.#           ",
"          #.OOOOOOO.#           ",
"          #.........#           ",
"          ###########           ",
"                                ",
"            +++++++             ",
"        +++++++++++++++         ",
"            +++++++             "
};
