/* XPM */
static char *fail1623946238[] = {
/* columns rows colors chars-per-pixel */
"32 32 10 1 ",
"  c None",
". c black",
"X c #322727",
"o c #323232",
"O c #484848",
"+ c #978377",
"@ c #8D8D8D",
"# c #C3A999",
"$ c #C3C3C3",
"% c white",
/* pixels */
"                                ",
"                                ",
"            %%%%%%%             ",
"           %%.....%%            ",
"          %%..XXX..%%           ",
"          %..XXXXX..%           ",
"          %.XXXXXXX.%           ",
"          %.XXXX##X.%           ",
"          %.XXX###..%           ",
"          %..##+##..%           ",
"          %%.#+++#.%%           ",
"           %%.###.%%            ",
"          %%..+++..%%           ",
"          %.Oo%$%oO.%           ",
"         %%.Oo$%$oO.%%          ",
"         %.OOo%%%oOO.%          ",
"         %.OOOo%oOOO.%          ",
"        %%.OOOo%oOOO.%%         ",
"        %.OOoOOoOOoOO.%         ",
"        %.OOOoOOOoOOO.%         ",
"        %%.OOOoOoOOO.%%         ",
"         %%.OOoOoOO.%%          ",
"          %.oo###.o.%           ",
"          %.O##O##O.%           ",
"          %.OOOOOOO.%           ",
"          %.OOOOOOO.%           ",
"          %.........%           ",
"          %%%%%%%%%%%           ",
"                                ",
"            @@@@@@@             ",
"        @@@@@@@@@@@@@@@         ",
"            @@@@@@@             "
};
