/* XPM */
static char *map_21623946240[] = {
/* columns rows colors chars-per-pixel */
"32 32 2 1 ",
"  c #8D8D8D",
". c #BCBCBC",
/* pixels */
"                                ",
".                              .",
"..                            ..",
"................................",
"................................",
"................................",
"................................",
"................................",
"................................",
"................................",
"................................",
"................................",
"................................",
"................................",
"................................",
"................................",
"................................",
"................................",
"................................",
"................................",
"................................",
"................................",
"................................",
"................................",
"................................",
"................................",
"................................",
"................................",
"................................",
"................................",
"................................",
"................................"
};
