/* XPM */
static char *success1623946241[] = {
/* columns rows colors chars-per-pixel */
"32 32 8 1 ",
"  c None",
". c black",
"X c #282828",
"o c #464646",
"O c #777777",
"+ c #8D8D8D",
"@ c gray64",
"# c white",
/* pixels */
"                                ",
"                                ",
"                                ",
"                                ",
"                                ",
"                                ",
"                                ",
"                                ",
"           ######               ",
"         ###....######          ",
"        ##..oooo.....###        ",
"       ##.ooooooooooo..###      ",
"      ##.oooooooooooooo..##     ",
"      #.ooooooooooooooooo.##    ",
"      #.XXXooooooooooooooX.#    ",
"      ##...XXooooooooooooX.#    ",
"       ####..XXooooooooooX.#    ",
"          ###..XXoooooooX.##    ",
"            ##...XXXoooX.##     ",
"             #.@@...XXXX.#      ",
"             #.@@OOO....##      ",
"            ##.@@OOO.####       ",
"            #.@@@OOO.#          ",
"           ##.@@@OO.##          ",
"           #.@@@OOO.#           ",
"           #.@@@OOO.#           ",
"           #.@@OOO.##           ",
"           ##.....##            ",
"            #######             ",
"            +++++++             ",
"        +++++++++++++++         ",
"            +++++++             "
};
